<svg preserveAspectRatio="none" overflow="visible" style="display: block;" width="16" height="16" viewBox="0 0 16 16" fill="none" xmlns="http://www.w3.org/2000/svg">
<g id="ri:building-line">
<path id="Vector" d="M13.9993 11.9831H15.3327V13.3164H0.666016V11.9831H1.99935V1.98307C1.99935 1.80626 2.06959 1.63669 2.19461 1.51167C2.31964 1.38664 2.4892 1.31641 2.66602 1.31641H9.33268C9.50949 1.31641 9.67906 1.38664 9.80409 1.51167C9.92911 1.63669 9.99935 1.80626 9.99935 1.98307V11.9831H12.666V6.64974H11.3327V5.31641H13.3327C13.5095 5.31641 13.6791 5.38664 13.8041 5.51167C13.9291 5.63669 13.9993 5.80626 13.9993 5.98307V11.9831ZM3.33268 2.64974V11.9831H8.66602V2.64974H3.33268ZM4.66602 6.64974H7.33268V7.98307H4.66602V6.64974ZM4.66602 3.98307H7.33268V5.31641H4.66602V3.98307Z" fill="currentColor"/>
</g>
</svg>
